<svg id="visual" viewBox="0 0 900 600" width="900" height="600" xmlns="http://www.w3.org/2000/svg" xmlns:xlink="http://www.w3.org/1999/xlink" version="1.1"><rect x="0" y="0" width="900" height="600" fill="#FFFFFF"></rect><defs><linearGradient id="grad1_0" x1="33.3%" y1="0%" x2="100%" y2="100%"><stop offset="20%" stop-color="#fbae3c" stop-opacity="1"></stop><stop offset="80%" stop-color="#fbae3c" stop-opacity="1"></stop></linearGradient></defs><defs><linearGradient id="grad1_1" x1="33.3%" y1="0%" x2="100%" y2="100%"><stop offset="20%" stop-color="#fbae3c" stop-opacity="1"></stop><stop offset="80%" stop-color="#ffbb5f" stop-opacity="1"></stop></linearGradient></defs><defs><linearGradient id="grad1_2" x1="33.3%" y1="0%" x2="100%" y2="100%"><stop offset="20%" stop-color="#ffc880" stop-opacity="1"></stop><stop offset="80%" stop-color="#ffbb5f" stop-opacity="1"></stop></linearGradient></defs><defs><linearGradient id="grad1_3" x1="33.3%" y1="0%" x2="100%" y2="100%"><stop offset="20%" stop-color="#ffc880" stop-opacity="1"></stop><stop offset="80%" stop-color="#ffd69f" stop-opacity="1"></stop></linearGradient></defs><defs><linearGradient id="grad1_4" x1="33.3%" y1="0%" x2="100%" y2="100%"><stop offset="20%" stop-color="#ffe3bf" stop-opacity="1"></stop><stop offset="80%" stop-color="#ffd69f" stop-opacity="1"></stop></linearGradient></defs><defs><linearGradient id="grad1_5" x1="33.3%" y1="0%" x2="100%" y2="100%"><stop offset="20%" stop-color="#ffe3bf" stop-opacity="1"></stop><stop offset="80%" stop-color="#fff1df" stop-opacity="1"></stop></linearGradient></defs><defs><linearGradient id="grad1_6" x1="33.3%" y1="0%" x2="100%" y2="100%"><stop offset="20%" stop-color="#ffffff" stop-opacity="1"></stop><stop offset="80%" stop-color="#fff1df" stop-opacity="1"></stop></linearGradient></defs><defs><linearGradient id="grad2_0" x1="0%" y1="0%" x2="66.7%" y2="100%"><stop offset="20%" stop-color="#fbae3c" stop-opacity="1"></stop><stop offset="80%" stop-color="#fbae3c" stop-opacity="1"></stop></linearGradient></defs><defs><linearGradient id="grad2_1" x1="0%" y1="0%" x2="66.7%" y2="100%"><stop offset="20%" stop-color="#ffbb5f" stop-opacity="1"></stop><stop offset="80%" stop-color="#fbae3c" stop-opacity="1"></stop></linearGradient></defs><defs><linearGradient id="grad2_2" x1="0%" y1="0%" x2="66.7%" y2="100%"><stop offset="20%" stop-color="#ffbb5f" stop-opacity="1"></stop><stop offset="80%" stop-color="#ffc880" stop-opacity="1"></stop></linearGradient></defs><defs><linearGradient id="grad2_3" x1="0%" y1="0%" x2="66.7%" y2="100%"><stop offset="20%" stop-color="#ffd69f" stop-opacity="1"></stop><stop offset="80%" stop-color="#ffc880" stop-opacity="1"></stop></linearGradient></defs><defs><linearGradient id="grad2_4" x1="0%" y1="0%" x2="66.7%" y2="100%"><stop offset="20%" stop-color="#ffd69f" stop-opacity="1"></stop><stop offset="80%" stop-color="#ffe3bf" stop-opacity="1"></stop></linearGradient></defs><defs><linearGradient id="grad2_5" x1="0%" y1="0%" x2="66.7%" y2="100%"><stop offset="20%" stop-color="#fff1df" stop-opacity="1"></stop><stop offset="80%" stop-color="#ffe3bf" stop-opacity="1"></stop></linearGradient></defs><defs><linearGradient id="grad2_6" x1="0%" y1="0%" x2="66.7%" y2="100%"><stop offset="20%" stop-color="#fff1df" stop-opacity="1"></stop><stop offset="80%" stop-color="#ffffff" stop-opacity="1"></stop></linearGradient></defs><g transform="translate(900, 0)"><path d="M0 324.5C-56.7 316 -113.4 307.4 -162.2 281C-211.1 254.6 -252.3 210.3 -278 160.5C-303.7 110.7 -314.1 55.3 -324.5 0L0 0Z" fill="#fff8ef"></path><path d="M0 278.1C-48.6 270.8 -97.2 263.5 -139.1 240.9C-181 218.2 -216.2 180.3 -238.3 137.6C-260.3 94.9 -269.2 47.4 -278.1 0L0 0Z" fill="#ffeacf"></path><path d="M0 231.8C-40.5 225.7 -81 219.6 -115.9 200.7C-150.8 181.9 -180.2 150.2 -198.6 114.6C-217 79.1 -224.4 39.5 -231.8 0L0 0Z" fill="#ffddaf"></path><path d="M0 185.4C-32.4 180.6 -64.8 175.7 -92.7 160.6C-120.7 145.5 -144.1 120.2 -158.9 91.7C-173.6 63.2 -179.5 31.6 -185.4 0L0 0Z" fill="#ffcf90"></path><path d="M0 139.1C-24.3 135.4 -48.6 131.8 -69.5 120.4C-90.5 109.1 -108.1 90.1 -119.1 68.8C-130.2 47.4 -134.6 23.7 -139.1 0L0 0Z" fill="#ffc270"></path><path d="M0 92.7C-16.2 90.3 -32.4 87.8 -46.4 80.3C-60.3 72.7 -72.1 60.1 -79.4 45.9C-86.8 31.6 -89.7 15.8 -92.7 0L0 0Z" fill="#fdb54e"></path><path d="M0 46.4C-8.1 45.1 -16.2 43.9 -23.2 40.1C-30.2 36.4 -36 30 -39.7 22.9C-43.4 15.8 -44.9 7.9 -46.4 0L0 0Z" fill="#fbae3c"></path></g><g transform="translate(0, 600)"><path d="M0 -324.5C55.9 -315 111.7 -305.6 161.5 -279.7C211.3 -253.9 254.9 -211.6 281 -162.2C307.2 -112.9 315.8 -56.4 324.5 0L0 0Z" fill="#fff8ef"></path><path d="M0 -278.1C47.9 -270 95.8 -261.9 138.4 -239.8C181.1 -217.6 218.5 -181.4 240.9 -139.1C263.3 -96.8 270.7 -48.4 278.1 0L0 0Z" fill="#ffeacf"></path><path d="M0 -231.8C39.9 -225 79.8 -218.3 115.4 -199.8C150.9 -181.3 182.1 -151.1 200.7 -115.9C219.4 -80.6 225.6 -40.3 231.8 0L0 0Z" fill="#ffddaf"></path><path d="M0 -185.4C31.9 -180 63.9 -174.6 92.3 -159.8C120.7 -145.1 145.6 -120.9 160.6 -92.7C175.5 -64.5 180.5 -32.3 185.4 0L0 0Z" fill="#ffcf90"></path><path d="M0 -139.1C23.9 -135 47.9 -131 69.2 -119.9C90.5 -108.8 109.2 -90.7 120.4 -69.5C131.6 -48.4 135.4 -24.2 139.1 0L0 0Z" fill="#ffc270"></path><path d="M0 -92.7C16 -90 31.9 -87.3 46.1 -79.9C60.4 -72.5 72.8 -60.5 80.3 -46.4C87.8 -32.3 90.2 -16.1 92.7 0L0 0Z" fill="#fdb54e"></path><path d="M0 -46.4C8 -45 16 -43.7 23.1 -40C30.2 -36.3 36.4 -30.2 40.1 -23.2C43.9 -16.1 45.1 -8.1 46.4 0L0 0Z" fill="#fbae3c"></path></g></svg>